<svg xmlns="http://www.w3.org/2000/svg" xmlns:xlink="http://www.w3.org/1999/xlink" width="235.889" height="29.86" viewBox="0 0 235.889 29.86">
  <defs>
    <linearGradient id="linear-gradient" x1="0.562" y1="-0.493" x2="0.398" y2="2.403" gradientUnits="objectBoundingBox">
      <stop offset="0" stop-color="#cd4c54"/>
      <stop offset="1" stop-color="#bb2e47"/>
    </linearGradient>
    <linearGradient id="linear-gradient-2" x1="0.65" y1="-2.325" x2="0.486" y2="0.641" xlink:href="#linear-gradient"/>
    <linearGradient id="linear-gradient-3" x1="0.546" y1="-1.047" x2="0.475" y2="1.35" xlink:href="#linear-gradient"/>
  </defs>
  <g id="그룹_30538" data-name="그룹 30538" transform="translate(-25 -21)">
    <g id="그룹_10336" data-name="그룹 10336" transform="translate(25 21)">
      <g id="그룹_19" data-name="그룹 19">
        <g id="그룹_18" data-name="그룹 18" transform="translate(8.392)">
          <path id="패스_54" data-name="패스 54" d="M1978.232,278.228a8.123,8.123,0,0,0-2.3.98l-.055.035c-.336.22-.609.434-.829.606l-.1.08c-.284.232-.59.5-.907.783l-.052.049a4.991,4.991,0,0,1-1.194.906,3.032,3.032,0,0,1-.978.257,2.925,2.925,0,0,1-1.453-.253,5.641,5.641,0,0,1-1.227-1,8.12,8.12,0,0,0-1.793-1.474l-.266-.154c-.127-.071-.255-.137-.38-.2l-.081-.038a7.9,7.9,0,0,0-1.273-.451,6.484,6.484,0,1,1,12.889-.124Z" transform="translate(-1965.197 -271.115)" fill="url(#linear-gradient)"/>
          <path id="패스_55" data-name="패스 55" d="M1965.169,305.182a7.853,7.853,0,0,0,2.685-1.208,11.85,11.85,0,0,0,1.023-.83c.091-.081.183-.162.277-.241a11.308,11.308,0,0,1,1.041-.768,2.935,2.935,0,0,1,2.568-.192l.148.074c.07.033.143.072.213.113s.224.149.409.279c.164.12.322.244.48.369l.089.069a12.057,12.057,0,0,0,3.235,1.977c.236.088.478.159.722.224a6.552,6.552,0,0,1-.129,2.3,6.487,6.487,0,0,1-12.76-2.166Z" transform="translate(-1965.135 -282.435)" fill="url(#linear-gradient-2)"/>
        </g>
        <path id="패스_56" data-name="패스 56" d="M1976.734,297.219a6.574,6.574,0,0,1-3.79-.226,10.7,10.7,0,0,1-2.836-1.757l-.076-.059c-.176-.138-.35-.275-.531-.408-.241-.17-.424-.29-.489-.333-.12-.072-.243-.139-.394-.211l-.139-.069a4.46,4.46,0,0,0-4,.271,12.6,12.6,0,0,0-1.22.894c-.108.091-.214.184-.319.277a10.242,10.242,0,0,1-.891.725A6.494,6.494,0,1,1,1961,285.11l.042.02c.1.049.2.1.327.171l.21.122a6.622,6.622,0,0,1,1.457,1.2,7.12,7.12,0,0,0,1.633,1.317,4.441,4.441,0,0,0,2.3.422,4.557,4.557,0,0,0,1.467-.383,6.18,6.18,0,0,0,1.622-1.191l.028-.026c.3-.271.586-.517.849-.732l.071-.057c.208-.163.444-.349.728-.534l.03-.019a6.485,6.485,0,1,1,4.976,11.8Z" transform="translate(-1951.821 -276.034)" fill="url(#linear-gradient-3)"/>
      </g>
      <g id="그룹_21" data-name="그룹 21" transform="translate(41.363 6.619)">
        <path id="패스_57" data-name="패스 57" d="M2229.237,287.975v7.514a4.488,4.488,0,0,0,4.471,4.494h11.347V296.9h-11.347a1.41,1.41,0,0,1-1.409-1.409v-2.345h12.455v-3.085H2232.3v-2.084a1.428,1.428,0,0,1,1.409-1.41h11.347v-3.084h-11.347A4.488,4.488,0,0,0,2229.237,287.975Z" transform="translate(-2068.652 -283.48)" fill="#fff"/>
        <path id="패스_58" data-name="패스 58" d="M2130.184,297.045l-1.556,3.039h3.456l5.012-9.815,3.5,6.853,1.517,2.962h3.455l-8.468-16.6Z" transform="translate(-2041.877 -283.481)" fill="#fff"/>
        <path id="패스_59" data-name="패스 59" d="M2151.458,286.566h6.7v13.417h3.085V286.566h6.7v-3.085h-16.478Z" transform="translate(-2047.953 -283.481)" fill="#fff"/>
        <path id="패스_60" data-name="패스 60" d="M2176.508,291.732a8.261,8.261,0,0,0,8.251,8.251h7.59V296.9h-7.59a5.166,5.166,0,0,1,0-10.333h7.59v-3.084h-7.59A8.261,8.261,0,0,0,2176.508,291.732Z" transform="translate(-2054.619 -283.48)" fill="#fff"/>
        <path id="패스_61" data-name="패스 61" d="M2215.85,290.079h-10.332l-.02-6.514v-.084h-3.085v16.5h3.085l.02-6.819h10.332l-.02,6.735v.084h3.085v-16.5h-3.085Z" transform="translate(-2061.514 -283.481)" fill="#fff"/>
        <path id="패스_62" data-name="패스 62" d="M2122.74,283.481h-3.208l-2.747,9.2-4.417-6.548-4.39,6.53-2.723-9.123-.019-.06h-3.209l3.835,12.919,1.05,3.5.054.178,5.411-8.639,5.3,8.5.1.158,4.93-16.513Z" transform="translate(-2034.798 -283.481)" fill="#fff"/>
        <path id="패스_63" data-name="패스 63" d="M2270.06,288.349a4.873,4.873,0,0,0-4.657-4.848.929.929,0,0,1-.1-.011,1.063,1.063,0,0,0-.289,0,.96.96,0,0,1-.1.011H2255.1V300h3.085v-6.813h2.833c.135,0,.268,0,.4,0,.884-.012,1.582-.027,2,.657l3.151,6.16h3.46l-3.774-6.9A4.893,4.893,0,0,0,2270.06,288.349Zm-9.178,1.771-2.7.009v-3.543h7.159l.082.005a1.778,1.778,0,0,1,0,3.524l-4.542,0Z" transform="translate(-2075.534 -283.48)" fill="#fff"/>
        <g id="그룹_20" data-name="그룹 20" transform="translate(0 0)">
          <path id="패스_64" data-name="패스 64" d="M2065.143,288.352a4.876,4.876,0,0,0-4.659-4.85c-.032,0-.062-.006-.094-.01a1.1,1.1,0,0,0-.3,0c-.03,0-.061.009-.085.01h-9.78v16.446h3.151V293.2h2.76c.134,0,.266,0,.4,0,.855-.013,1.54-.027,1.939.625l1.619,3.17,1.516,2.961h3.537l-3.748-6.857A4.9,4.9,0,0,0,2065.143,288.352Zm-4.645,1.7-.068,0h-.01l-7.048.011v-3.415h7l.126.005a1.715,1.715,0,0,1,0,3.4Z" transform="translate(-2021.01 -283.481)" fill="#fff"/>
          <path id="패스_65" data-name="패스 65" d="M2079.574,299.955h11.289V296.8h-11.289a1.367,1.367,0,0,1-1.35-1.349v-2.276h12.341v-3.152h-12.341v-2.018a1.367,1.367,0,0,1,1.35-1.349h11.289v-3.151h-11.289a4.494,4.494,0,0,0-4.478,4.5v7.446A4.494,4.494,0,0,0,2079.574,299.955Z" transform="translate(-2027.631 -283.488)" fill="#fff"/>
          <path id="패스_66" data-name="패스 66" d="M2013.774,293.238h12.094v-3.154H2013.8l-.007-2.073a1.426,1.426,0,0,1,1.462-1.347H2026.2v-3.155h-10.977a4.669,4.669,0,0,0-4.811,4.5v11.944h3.349Z" transform="translate(-2010.418 -283.488)" fill="#fff"/>
          <rect id="사각형_2" data-name="사각형 2" width="3.285" height="16.467" transform="translate(20.856)" fill="#fff"/>
        </g>
      </g>
    </g>
  </g>
</svg>
